<svg xmlns="http://www.w3.org/2000/svg" width="82.667" height="53.143" viewBox="0 0 82.667 53.143">
  <g id="Group_19435" data-name="Group 19435" transform="translate(-588 -1743)">
    <path id="Icon_awesome-mountain" data-name="Icon awesome-mountain" d="M65.9,48.026,36.008,1.526a3.321,3.321,0,0,0-5.588,0L.527,48.026a3.321,3.321,0,0,0,2.794,5.117H63.107A3.321,3.321,0,0,0,65.9,48.026ZM33.214,9.464,42.077,23.25H33.214l-6.643,6.643-3.95-3.95Z" transform="translate(588 1743)" fill="#bc1820"/>
    <path id="Icon_awesome-mountain-2" data-name="Icon awesome-mountain" d="M48.327,35.219,26.406,1.119a2.436,2.436,0,0,0-4.1,0L.387,35.219a2.435,2.435,0,0,0,2.049,3.753H46.278a2.436,2.436,0,0,0,2.049-3.752ZM24.357,6.94l6.5,10.11h-6.5l-4.871,4.871-2.9-2.9Z" transform="translate(621.952 1757.171)" fill="#bc1820" opacity="0.73"/>
  </g>
</svg>
